<svg version="1.1" xmlns="http://www.w3.org/2000/svg" viewBox="0 0 405.4284973144531 371.5713882446289" width="405.4284973144531" height="371.5713882446289" filter="invert(93%) hue-rotate(180deg)">
  <!-- svg-source:excalidraw -->
  
  <defs>
    <style>
      @font-face {
        font-family: "Virgil";
        src: url("https://excalidraw.com/Virgil.woff2");
      }
      @font-face {
        font-family: "Cascadia";
        src: url("https://excalidraw.com/Cascadia.woff2");
      }
    </style>
  </defs>
  <rect x="0" y="0" width="405.4284973144531" height="371.5713882446289" fill="#ffffff"/><g stroke-linecap="round" transform="translate(40 66.14280700683594) rotate(0 149.00003051757812 133.28571701049805)"><path d="M-1.03 1.3 C93.67 -2.88, 189.76 -1.06, 298.07 0.63 M0.35 -0.37 C104.32 -1.58, 209.46 -1.48, 298.44 0.59 M297.29 0.62 C298.63 83.25, 298.26 168.73, 296.66 265.18 M298.49 -0.27 C297.36 103.86, 297.12 208.61, 297.55 266.67 M297.9 266.75 C188.95 263.42, 79.5 263.92, 1.26 267.68 M297.74 266.82 C208.57 267.09, 120.24 267.57, -0.27 266.33 M-0.73 267.89 C0.97 205.43, 1.18 140.85, -0.51 0.43 M-0.59 266.63 C2.27 174.8, 2.57 83.19, 0.73 -0.32" stroke="#000000" stroke-width="1" fill="none"/></g><g stroke-linecap="round"><g transform="translate(383.7142028808594 26.714248657226562) rotate(0 -186.8571014404297 166.14287948608398)"><path d="M0 0 C-62.29 55.38, -311.43 276.9, -373.71 332.29" stroke="#000000" stroke-width="1.5" fill="none" stroke-dasharray="1.5 7"/></g></g><g stroke-linecap="round"><g stroke-opacity="0.3" fill-opacity="0.3" transform="translate(278.8571472167969 10) rotate(0 58.285675048828125 53.714271545410156)"><path d="M0 0 C19.43 17.9, 97.14 89.52, 116.57 107.43" stroke="#000000" stroke-width="1.5" fill="none" stroke-dasharray="8 9"/></g></g><g stroke-linecap="round"><g transform="translate(10.571456909179688 40.99995422363281) rotate(0 179.4286117553711 160.28571701049805)"><path d="M0 0 C59.81 53.43, 299.05 267.14, 358.86 320.57" stroke="#000000" stroke-width="1.5" fill="none" stroke-dasharray="1.5 7"/></g></g><g stroke-linecap="round"><g transform="translate(186.2857666015625 64.99996185302734) rotate(0 2.4285736083984375 133.4285659790039)"><path d="M0 0 C0.81 44.48, 4.05 222.38, 4.86 266.86 M0 0 C0.81 44.48, 4.05 222.38, 4.86 266.86" stroke="#000000" stroke-width="1" fill="none"/></g></g><g stroke-linecap="round"><g transform="translate(186.57144165039062 91.57140350341797) rotate(0 76.14285278320312 -12.285720825195312)"><path d="M0 0 C25.38 -4.1, 126.9 -20.48, 152.29 -24.57 M0 0 C25.38 -4.1, 126.9 -20.48, 152.29 -24.57" stroke="#1864ab" stroke-width="1" fill="none"/></g></g><g stroke-linecap="round"><g stroke-opacity="0.3" fill-opacity="0.3" transform="translate(337.7143859863281 66.142822265625) rotate(0 -3.7142791748046875 -21.71428680419922)"><path d="M0 0 C-2.18 -12.72, -4.35 -25.43, -7.43 -43.43 M0 0 C-2.41 -14.11, -4.83 -28.22, -7.43 -43.43" stroke="#1864ab" stroke-width="1" fill="none"/></g><g stroke-opacity="0.3" fill-opacity="0.3" transform="translate(337.7143859863281 66.142822265625) rotate(0 -3.7142791748046875 -21.71428680419922)"><path d="M3.49 -24.29 C0.29 -29.9, -2.9 -35.5, -7.43 -43.43 M3.49 -24.29 C-0.06 -30.51, -3.61 -36.73, -7.43 -43.43" stroke="#1864ab" stroke-width="1" fill="none"/></g><g stroke-opacity="0.3" fill-opacity="0.3" transform="translate(337.7143859863281 66.142822265625) rotate(0 -3.7142791748046875 -21.71428680419922)"><path d="M-11.37 -21.75 C-10.21 -28.1, -9.06 -34.45, -7.43 -43.43 M-11.37 -21.75 C-10.09 -28.8, -8.81 -35.84, -7.43 -43.43" stroke="#1864ab" stroke-width="1" fill="none"/></g></g><g stroke-linecap="round"><g stroke-opacity="0.3" fill-opacity="0.3" transform="translate(329.71429443359375 20.999954223632812) rotate(0 -8.571426391601562 8.714275360107422)"><path d="M0 0 C-6.78 6.9, -13.57 13.79, -17.14 17.43 M0 0 C-5.48 5.57, -10.96 11.14, -17.14 17.43" stroke="#2b8a3e" stroke-width="1" fill="none"/></g></g><g stroke-linecap="round"><g transform="translate(338.00006103515625 66.42852020263672) rotate(0 -13 -13.571422576904297)"><path d="M0 0 C-6.16 -6.43, -12.31 -12.85, -26 -27.14 M0 0 C-7.94 -8.29, -15.88 -16.58, -26 -27.14" stroke="#d9480f" stroke-width="1" fill="none"/></g><g transform="translate(338.00006103515625 66.42852020263672) rotate(0 -13 -13.571422576904297)"><path d="M-9.14 -18.84 C-13.13 -20.8, -17.12 -22.77, -26 -27.14 M-9.14 -18.84 C-14.29 -21.37, -19.44 -23.91, -26 -27.14" stroke="#d9480f" stroke-width="1" fill="none"/></g><g transform="translate(338.00006103515625 66.42852020263672) rotate(0 -13 -13.571422576904297)"><path d="M-18.43 -9.94 C-20.22 -14.02, -22.01 -18.09, -26 -27.14 M-18.43 -9.94 C-20.74 -15.2, -23.05 -20.45, -26 -27.14" stroke="#d9480f" stroke-width="1" fill="none"/></g></g><g stroke-linecap="round"><g stroke-opacity="0.4" fill-opacity="0.4" transform="translate(329.4286193847656 21.285667419433594) rotate(0 13.428573608398438 14.714282989501953)"><path d="M0 0 C7.43 8.15, 14.87 16.29, 26.86 29.43 M0 0 C8.35 9.15, 16.7 18.3, 26.86 29.43" stroke="#2b8a3e" stroke-width="1" fill="none"/></g></g><g stroke-linecap="round"><g transform="translate(339.1429138183594 66.7142333984375) rotate(0 8.714263916015625 -8.14285659790039)"><path d="M0 0 C5.31 -4.96, 10.61 -9.92, 17.43 -16.29 M0 0 C4.71 -4.4, 9.41 -8.79, 17.43 -16.29" stroke="#d9480f" stroke-width="1" fill="none"/></g><g transform="translate(339.1429138183594 66.7142333984375) rotate(0 8.714263916015625 -8.14285659790039)"><path d="M12.02 -5.65 C13.67 -8.89, 15.32 -12.13, 17.43 -16.29 M12.02 -5.65 C13.48 -8.52, 14.94 -11.39, 17.43 -16.29" stroke="#d9480f" stroke-width="1" fill="none"/></g><g transform="translate(339.1429138183594 66.7142333984375) rotate(0 8.714263916015625 -8.14285659790039)"><path d="M6.45 -11.61 C9.8 -13.04, 13.14 -14.46, 17.43 -16.29 M6.45 -11.61 C9.42 -12.88, 12.38 -14.14, 17.43 -16.29" stroke="#d9480f" stroke-width="1" fill="none"/></g></g></svg>